# xmcd CD database file
#
# Track frame offsets:
#	150
#	21444
#	40816
#	57219
#	78559
#	96377
#	124194
#	153437
#	171753
#	191155
#
# Disc length: 3031 seconds
#
# Revision: 0
# Processed by: cddbd v1.5.1PL0 Copyright (c) Steve Scherf et al.
# Submitted via: CDex 1.51
#
DISCID=850bd50a
DTITLE=La Cubancha - El son entero de Cuba
DYEAR=1999
DGENRE=Salsa
TTITLE0=Lloraras
TTITLE1=Narnaja china
TTITLE2=Amorosa guajira
TTITLE3=Angel de tu guardia
TTITLE4=La Cubancha
TTITLE5=Camagüey
TTITLE6=Carmela mia
TTITLE7=Perdon
TTITLE8=Qualquiera resbala y cae
TTITLE9=Pensamiento
EXTD=YEAR: 1999
EXTT0=
EXTT1=
EXTT2=
EXTT3=
EXTT4=
EXTT5=
EXTT6=
EXTT7=
EXTT8=
EXTT9=
PLAYORDER=
